PathFileType	4	(X/Y/Z)	T00_JumpTrial_0-2667.trc
DataRate	CameraRate	NumFrames	NumMarkers	Units	OrigDataRate	OrigDataStartFrame	OrigNumFrames
30	30	11	21	m	30	2000	2667
Frame#	Time	RHip			RKnee			RAnkle			RBigToe			RSmallToe			RHeel			LHip			LKnee			LAnkle			LBigToe			LSmallToe			LHeel			Neck			Head			Nose			RShoulder			RElbow			RWrist			LShoulder			LElbow			LWrist		
		X1	Y1	Z1	X2	Y2	Z2	X3	Y3	Z3	X4	Y4	Z4	X5	Y5	Z5	X6	Y6	Z6	X7	Y7	Z7	X8	Y8	Z8	X9	Y9	Z9	X10	Y10	Z10	X11	Y11	Z11	X12	Y12	Z12	X13	Y13	Z13	X14	Y14	Z14	X15	Y15	Z15	X16	Y16	Z16	X17	Y17	Z17	X18	Y18	Z18	X19	Y19	Z19	X20	Y20	Z20	X21	Y21	Z21
2001	66.7	0.28269008495487263	-0.7027159689270246	0.8414842815127397	0.03807243456569145	0.38295322248975017	1.0023478067183431				-0.0678630353407899	0.676823568972534	0.4404495951125366	-0.04595688190216047	0.6541528985313012	0.36194326852516157	0.018926297264364275	0.4367759304949638	0.25100377261682294	-0.05464220182395159	0.48325166698597066	0.3058411104207967	0.0051553690844281744	-0.13202217273347913	0.9791298067208121	-0.5386374000426668	-1.4279984037338032	0.8474514592417367	0.12589651263820573	0.3731652379755519	1.218989875959612	0.07481374199940155	0.3929303854071708	1.1957720066382902	0.06582254923617523	0.42645456092270195	0.9823781126183921	-0.5406307055919508	-1.355381723775253	0.7436327130614149				-0.5180112070018397	-1.3710608551476302	0.8937701342521726				0.14929612310735071	-0.643843659439922	0.7937531163353124	-0.29672039034433306	0.17113948837917636	0.6866817949424946	-0.01896214848132013	-1.2359284556807488	0.7233341182642998				0.007656129827901882	-0.5814639133027667	0.7459592257476867
2002	66.73333333333333	0.4001599687795713	-0.7535215105245909	0.8723528332837136	0.04379282147636535	0.37700350399446925	1.0073149596856692				-0.10147768238252385	0.6863374047608867	0.46319497354285644	-0.0674689404662639	0.6451417424528767	0.3925004847804818	-0.0217953181919151	0.4162071696085571	0.30337013663100354	-0.1065691399510218	0.47434184842323796	0.36419186256036185	0.042425641402805615	-0.15215802800611464	1.0055631037284878	-0.5536760520725661	-1.4320692826623844	0.8915610450667308	0.10400107066024364	0.387450123323586	1.2211157032796156	0.07027853247083281	0.3972825938393573	1.195571988313223	0.048597754118909306	0.43913541831273595	0.9832900004170385	-0.5376335875346445	-1.3611652362433162	0.7904001984563818				-0.503782491255814	-1.3832311915480373	0.938207472676774				0.23866232629870457	-0.6878495719711327	0.836234272226394	-0.23786871222509873	0.1381693204806415	0.7958375866976819	-0.07442987724224043	-1.2388221442119123	0.7551960472842273				0.050148756794333886	-0.6080088976860174	0.7978643923658301
2003	66.76666666666667	0.4589705557146325	-0.7804551793380732	0.8998514951764636	0.04066852569647234	0.3807995336312365	1.0111124836394874				-0.1345336638804966	0.6940903774166463	0.5177329883174544	-0.08027647699657824	0.6285616097407354	0.45735360457740953	-0.04966373319843875	0.3972790595058316	0.3767840023610459	-0.12424085484231631	0.45082215191208747	0.4488146309211574	0.11898115778888636	-0.17574786065886586	1.0258847271953235	-0.5594002404823334	-1.436484532709287	0.9370038029083549	0.09853704665749721	0.3892568684858143	1.220968205369251	0.06653580274779271	0.3978718477443603	1.1961179725044357	0.030359419533585556	0.45714956326468925	0.9860286082781544	-0.5209512002613222	-1.370667942034425	0.837497456849751				-0.47952100430799455	-1.400952378568147	0.9828058447529311				0.2971414035746852	-0.7162114613933435	0.8777988495879592	-0.21261285557477227	0.10867247787536896	0.8997661849018623	-0.13450227484584126	-1.2312235917464365	0.7907363675038156				0.09061403936964073	-0.634232082931576	0.8496947518077025
2004	66.8	0.45057102918945	-0.7870124273934345	0.9299979658554489	0.031254098711608405	0.39428274648460254	1.0115332571444253				-0.15862475746613675	0.6928282488671297	0.6175153098986684	-0.11252416668988954	0.6291093609273506	0.5572989161930202	-0.06988012737768354	0.3865141256242539	0.46774565815695385	-0.1365757293218187	0.4355372862985735	0.5476213559308911	0.19112129280926318	-0.18657194746959965	1.0393551212693042	-0.5589116254821628	-1.4387400182199896	0.9826997616321917	0.11094351994687077	0.3773568810377639	1.2188171072648464	0.062035491269640794	0.39529731864173145	1.1968824039777475	0.02380889853898352	0.4685221949154441	0.9880221145044102	-0.5046172291857944	-1.3785327202685307	0.8833797719355755				-0.46397653353988205	-1.417546538315631	1.027477355848615				0.3142791469496331	-0.7312692400188375	0.9218559736706299	-0.18640561502301348	0.07129810421309402	0.9941828647318313	-0.15696898403109627	-1.223520619635245	0.8328294906871437				0.13873126856024867	-0.6627103589714123	0.9031746452269742
2005	66.83333333333333	0.4085417248843782	-0.7879547256977535	0.9635061387497182	0.023702971320257074	0.40614451032187443	1.0074822089099291				-0.18208126757789586	0.6873147155222497	0.7543679944646172	-0.18999587012823704	0.6676629195964323	0.6843648482204535	-0.10007604736384353	0.3979259691282858	0.5699454811896137	-0.14833586118926484	0.43398796594313965	0.6553247439976535	0.22944244017077417	-0.18791363701110522	1.0479831500888888	-0.5532368963295167	-1.439494925459765	1.0278055638529668	0.11853194832597733	0.37433713459387424	1.2153958115809613	0.059269498768862346	0.39576740242486547	1.1958701505341298	0.027625706517027157	0.46597629607190094	0.9824910182278925	-0.49833168502165837	-1.3833337129706798	0.9254515551510565				-0.4690387580027267	-1.4260256112330603	1.0708167902049341				0.2979152835056169	-0.7389900484797558	0.9661282199438295	-0.20486445072875126	0.05880426253127373	1.0808055564239165	-0.1578450758669881	-1.2209129448014326	0.8766642615030795				0.170710119900837	-0.6825234099370082	0.9560201464369743
2006	66.86666666666666	0.37393278452104906	-0.7916966695345469	0.9950359057099583	0.025276528239539905	0.40128528973557487	0.999886960533171				-0.21596607434441112	0.6894464275154446	0.9086709980502067	-0.2802372232849543	0.7225299914783687	0.8308403955586487	-0.13372324199968594	0.43512413523970894	0.685288206219429	-0.14608785172002153	0.44242277495088067	0.7716701667995941	0.22361461214308107	-0.1875918635691673	1.0561400921990292	-0.5352428006862952	-1.4420618833572834	1.0707690690458853	0.11698553120026879	0.3915172611962771	1.2092179574217885	0.061283750346630986	0.409197304008744	1.1903468098542174	0.02953364183434988	0.4458986558517689	0.963897024031564	-0.5042602698542384	-1.3869317024486048	0.9631537397720465				-0.4821889207279813	-1.4275562045280759	1.1116709773071685				0.2630034821416835	-0.7383402451258811	1.0049205947276825	-0.2622873663205685	0.07422227400044645	1.1608468223647592	-0.15870165713320655	-1.2245002447378106	0.9160411772685034				0.15294117560447026	-0.6806357286669692	1.0044940194067664
2007	66.9	0.36985953592552984	-0.798300008863381	1.0211415896663616	0.028573127848134917	0.3822033147743311	0.9951342700431423				-0.2294388049440017	0.6894541005751688	1.065610016555359	-0.3115768662012205	0.7463422364476153	0.9874166990235665	-0.13696224544210733	0.47682250864030623	0.8169940317787384	-0.13301110133016747	0.4588116039822442	0.8955513231309757	0.1805731054747402	-0.18518093444212164	1.0669196663757066	-0.499077160665278	-1.4487787642494143	1.1098536082794166	0.10217339877518448	0.4230068876765544	1.1992918329332438	0.06129768148446874	0.43584046162187945	1.1813500185104864	0.021660475268119973	0.41704479656890264	0.9428459127441812	-0.5179202579570215	-1.3897896619927235	0.9996413812090479				-0.48554090875670053	-1.4273817862233378	1.1504699615689782				0.22787974689658838	-0.7311934161515222	1.0373685801805945	-0.25736400331226145	0.06385012685140957	1.2311891620214637	-0.15124610502934988	-1.2340393473742546	0.949933156015924				0.08545624930925028	-0.6586131673014426	1.0480734534003826
2008	66.93333333333334	0.3838138813585759	-0.8036598973417337	1.046107167755523	0.03687309215418434	0.3599222710917866	1.0014905527405722				-0.1851372045894228	0.6649384094580659	1.2190207949765657	-0.2660509792796779	0.726972326607586	1.1453865885733172	-0.09176088518238934	0.4949998017389633	0.9561119354265464	-0.11342061431266252	0.47323508403225234	1.0242110123831432	0.13847442027816234	-0.18866465453865014	1.0793019973325377	-0.46671411578668365	-1.4564955668075634	1.1460929304704688	0.06164013353324305	0.4549866860921239	1.1898040664975695	0.04912592189967387	0.45849795022918444	1.1752276362933	0.0032925060898541677	0.40687659022626693	0.9432732386201936	-0.5275150172849377	-1.3906675465020895	1.0392981240921246				-0.47336593549889183	-1.4279672233505216	1.188131935469415				0.20884428817065612	-0.7261427578427063	1.0674340598155552	-0.17083882656615548	0.00946641504092842	1.289147585787117	-0.13799155451799056	-1.2430075026453533	0.9812641806229847				-0.005558687173194993	-0.6269566650455001	1.0874356224885129
2009	66.96666666666667	0.3831689689005861	-0.8048814325819043	1.0738408865204991	0.08746085673452839	0.3254660146629572	1.0179245420234988				-0.09135000053940598	0.6062546510743358	1.3691613564720477	-0.17371905855401942	0.6800380852506429	1.3013459550857482	-0.023190429424351497	0.48686599100391825	1.0915861781794483	-0.060282820757720096	0.4640646611428512	1.1535845568482546	0.1247087644814749	-0.20369968488291856	1.090945558994551	-0.46241674170012004	-1.459988024321595	1.1827244364747784	0.014923236757802145	0.4669316325098807	1.1879592746163388	0.03272675653430114	0.4561945056853775	1.177255514149669	-0.008711469153976286	0.4227415765077759	0.9679256602196684	-0.520900445002233	-1.3892800228610394	1.082839829105223				-0.4512199237705386	-1.429079183026969	1.225320066852984				0.20607945173072695	-0.7260983959373541	1.0964327634832316	-0.09482295374318457	-0.044841407094442245	1.3385479690834845	-0.14220273309121556	-1.2454050047143217	1.010364954805852	-0.0294431815300242	-0.7094668508205701	1.2380244392663795	-0.07143462861469806	-0.602271026498679	1.122032281578656
2010	67.0	0.37516246214505067	-0.8078727063229736	1.1019278487496897	0.17865061812540192	0.27788595310344977	1.032469905808371				0.019431509568370496	0.5215172009485831	1.5152071803096967	-0.04157840405260379	0.5998410944188962	1.4498346933122241	0.0361147542901417	0.46835205150493125	1.2266049591840087	0.03501089374118478	0.4279187563507588	1.2797062837590203	0.13587603658132322	-0.22229596320751305	1.1038836117488786	-0.47928230563556673	-1.4580004675667169	1.2218164053311225	0.01134663017934404	0.44382134011771235	1.197160688632958	0.03536307710594155	0.4254643222986533	1.1858723018687178	0.0012651254714678433	0.4400345289184653	0.9909834464161666	-0.5017799437316726	-1.386179019534704	1.1263105460701168				-0.42999489916334244	-1.4294750042410835	1.262641954604163	-0.1005402643860505	-0.8719904315774294	1.0980650754242918	0.2135572039575963	-0.7279057567284267	1.1238074695471654	-0.08176083609509932	-0.06476084611280389	1.3833782338884624	-0.15850010883026408	-1.2452937734821443	1.0382466562522525	-0.0076755614068228	-0.7831916899877529	1.2878778905399966	-0.07809380121610204	-0.59611371292563	1.1529854351756041
2011	67.03333333333333	0.38824507109200534	-0.8155394883984678	1.128608808715444	0.2390671912211035	0.2505342655070424	1.0358469378448352				0.1212867594132549	0.4293641074062462	1.648744282366513	0.1115531122482395	0.48771394481617336	1.5796633148830235	0.08504591455738783	0.44488005317308066	1.3643145272205843	0.1267245844466427	0.38637955534271706	1.3988817492624899	0.1482452922035242	-0.22921842085063687	1.121694049880652	-0.49346723323009456	-1.4534959530129208	1.2629205494768208	0.061339677464184394	0.3997343516590112	1.2124804331333527	0.061155713501385676	0.38792073520904635	1.194796088114038	0.015848590179686796	0.44763296878213155	0.9957752479169206	-0.48667096268928	-1.3812432000482824	1.1654318948449593				-0.418666580823586	-1.4249084636885032	1.3001525906863813	-0.1310059915231268	-0.8439360167554946	1.1417162592817218	0.24121175276801604	-0.7342446549754326	1.150872280270324	-0.08739624999897697	-0.06637796712284767	1.4197144363710026	-0.16222873046371114	-1.2464691575014006	1.072011131262187	-0.0568127602689567	-0.7493615725572788	1.3478554703769896	-0.042300088648030656	-0.6053755336501032	1.1852334034801066
